<?xml version="1.0" standalone="no"?>
<!DOCTYPE svg PUBLIC "-//W3C//DTD SVG 20010904//EN"
 "http://www.w3.org/TR/2001/REC-SVG-20010904/DTD/svg10.dtd">
<svg version="1.0" xmlns="http://www.w3.org/2000/svg"
 width="400.000000pt" height="400.000000pt" viewBox="0 0 400.000000 400.000000"
 preserveAspectRatio="xMidYMid meet">
<metadata>
Created by potrace 1.14, written by Peter Selinger 2001-2017
</metadata>
<g transform="translate(0.000000,400.000000) scale(0.100000,-0.100000)"
fill="#000000" stroke="none">
<path d="M1837 3979 c-357 -41 -663 -196 -878 -444 -251 -289 -402 -698 -449
-1213 -17 -177 -8 -675 15 -832 94 -670 364 -1123 790 -1325 428 -203 1020
-173 1411 70 433 270 684 770 745 1483 15 183 6 642 -16 802 -95 699 -377
1157 -830 1353 -222 96 -525 137 -788 106z m343 -598 c190 -60 343 -217 444
-458 l35 -82 -687 -497 c-378 -274 -702 -509 -721 -523 l-33 -25 5 284 c5 307
16 406 67 607 99 391 288 632 552 703 93 26 241 22 338 -9z m577 -1466 c-3
-145 -12 -294 -21 -354 -55 -365 -171 -633 -341 -789 -187 -171 -448 -209
-680 -99 -159 77 -282 222 -359 430 l-26 67 52 38 c29 20 350 252 713 514 499
360 661 473 664 460 2 -9 1 -129 -2 -267z"/>
</g>
</svg>
